<svg width="215" height="35" viewBox="0 0 215 35" fill="none" xmlns="http://www.w3.org/2000/svg">
<g clip-path="url(#clip0_173_239)">
<path d="M43.8045 20.5599H49.8894C49.7571 18.6149 48.6891 17.6081 46.8812 17.6081C45.3429 17.6081 44.2062 18.6149 43.8094 20.5599M46.749 29.8723C42.1681 29.8723 39.4294 27.1562 39.4294 22.3674C39.4294 17.5786 42.3396 14.6611 47.0184 14.6611C51.6972 14.6611 54.0391 17.2741 54.0391 22.0678C54.0391 22.4018 54.0391 22.7063 54.0048 23.0403H43.6771C43.878 25.4862 45.0489 26.6945 46.9547 26.6945C48.5274 26.6945 49.5954 25.9234 50.0315 24.6513L53.8431 25.1866C53.0102 28.4725 50.3989 29.8772 46.7588 29.8772" fill="#272726"/>
<path d="M65.0968 29.5383H56.5377V26.724L57.8066 26.6552C58.277 26.6208 58.4435 26.4195 58.4435 25.9529V18.7475C58.4435 18.2809 58.3113 18.109 57.8752 18.0796L56.5377 17.9764V14.9607H61.8877V16.5029C61.8877 17.4411 61.8877 18.3153 61.7897 19.1847C62.7598 16.2377 64.0287 14.6611 66.204 14.6611C66.738 14.6611 67.2084 14.7593 67.6395 14.9263V19.4008C66.885 19.0914 66.1354 19.0177 65.6651 19.0177C64.6411 19.0177 63.7446 19.4696 62.9999 20.7171C62.6177 21.3605 62.4218 22.1071 62.4218 22.8536V25.9529C62.4218 26.39 62.554 26.6257 63.0587 26.6257L65.0968 26.724V29.5383Z" fill="#272726"/>
<path d="M78.1778 26.4882C80.2159 26.4882 81.5534 25.0147 81.5534 22.2004C81.5534 19.3861 80.2159 18.0108 78.2758 18.0108C75.8359 18.0108 74.8022 20.221 74.8022 22.4361C74.8022 25.0491 76.1397 26.4931 78.1778 26.4931M74.1996 27.3969L74.033 29.5432H69.1533V26.7289L70.3879 26.6306C70.8583 26.5963 71.0591 26.3605 71.0591 25.8939V13.89C71.0591 13.4234 70.8926 13.2859 70.4565 13.2515L69.1533 13.1483V10.2358H75.0031V13.9882C75.0031 14.8919 74.9345 15.8644 74.8365 16.8026C75.9388 15.3635 77.5752 14.6562 79.4173 14.6562C83.3612 14.6562 85.9383 17.2348 85.9383 22.0285C85.9383 26.8222 82.9987 29.8674 79.0499 29.8674C76.708 29.8674 75.1402 28.9637 74.2045 27.387" fill="#272726"/>
<path d="M96.0454 26.724C98.1521 26.724 99.421 25.0147 99.421 22.2348C99.421 19.4548 98.2158 17.8094 96.2463 17.8094C94.1396 17.8094 92.8364 19.4843 92.8364 22.2642C92.8364 25.0442 94.071 26.7191 96.0454 26.7191M96.3443 14.6562C101.057 14.6562 103.698 17.6375 103.698 22.1955C103.698 26.7534 100.989 29.8674 95.9083 29.8674C91.1951 29.8674 88.5201 27.053 88.5201 22.3625C88.5201 17.6719 91.2931 14.6562 96.3394 14.6562" fill="#272726"/>
<path d="M105.153 29.5383V26.724L106.456 26.6552C106.892 26.6208 107.093 26.4194 107.093 25.9528V13.9244C107.093 13.4528 106.927 13.2859 106.491 13.2515L105.187 13.1532V10.2358H111.037V25.9528C111.037 26.4244 111.17 26.6257 111.64 26.6552L112.943 26.724V29.5383H105.153Z" fill="#272726"/>
<path d="M27.8867 24.5776V18.0452H25.7114V15.1277L27.2498 14.9607C27.6858 14.8919 27.8524 14.7593 27.8867 14.2927L28.2884 10.2358H31.8649V14.9607H37.0141V18.0452H31.8649V24.4794C31.8649 25.9528 32.3353 26.8566 33.2024 26.8566C34.0696 26.8566 34.5056 26.2525 34.5742 24.9804C34.6085 24.1405 34.6428 23.4037 34.6085 22.5688H37.1855C37.2835 23.4086 37.3178 24.0422 37.3178 24.779C37.3178 27.8291 36.1812 29.8723 32.6047 29.8723C29.7974 29.8723 27.8916 28.4971 27.8916 24.5776" fill="#272726"/>
<path d="M20.7485 10.3978C20.7485 8.95383 20.1311 7.65717 19.1415 6.75343C19.1415 6.67976 19.1464 6.60117 19.1464 6.52259C19.1464 3.80157 16.9466 1.59626 14.2324 1.59626C14.154 1.59626 14.0805 1.59626 14.0021 1.60118C13.1056 0.613945 11.8073 -0.00982666 10.3669 -0.00982666C8.92649 -0.00982666 7.63308 0.609034 6.73651 1.60118C6.65812 1.60118 6.58463 1.59626 6.50624 1.59626C3.80184 1.60118 1.60206 3.80648 1.60206 6.5275C1.60206 6.60609 1.60206 6.67976 1.60696 6.75835C0.622209 7.65717 0 8.95874 0 10.4027C0 11.8468 0.617309 13.1434 1.60696 14.0471C1.60696 14.1208 1.60206 14.1994 1.60206 14.278C1.60206 16.9499 3.72345 19.1208 6.36906 19.1994C8.88239 19.3517 10.8764 21.4489 10.8764 24.0079V24.0177C10.8764 25.221 11.4398 26.2917 12.3119 26.9892C12.743 26.0855 12.988 25.0737 12.9831 24.0029C12.9684 19.9656 9.69567 17.1955 6.39356 17.0825C5.22753 17.0334 4.25257 16.2868 3.87043 15.2112C3.76755 14.9165 3.70876 14.6022 3.70876 14.2682C3.70876 13.9047 3.78224 13.556 3.90473 13.2367C3.94392 13.1385 3.89493 13.0206 3.79694 12.9764C3.17473 12.7063 2.67501 12.2151 2.38105 11.6061C2.20468 11.2377 2.10669 10.8301 2.10669 10.3978C2.10669 9.96562 2.20958 9.55304 2.38105 9.18958C2.67011 8.58055 3.17473 8.08939 3.79694 7.81925C3.89493 7.77505 3.94392 7.66208 3.90473 7.55894C3.77734 7.23968 3.70876 6.89096 3.70876 6.5275C3.70876 6.13949 3.79204 5.7662 3.93412 5.42731C4.21338 4.75933 4.7523 4.21414 5.4186 3.93418C5.75665 3.79175 6.129 3.70825 6.52094 3.70825C6.88349 3.70825 7.23134 3.77701 7.54979 3.90471C7.65268 3.944 7.76536 3.89489 7.80945 3.79666C8.07891 3.17288 8.56884 2.6719 9.17635 2.37721C9.5438 2.20039 9.95044 2.10216 10.3816 2.10216C10.8127 2.10216 11.2243 2.2053 11.5868 2.37721C12.1943 2.66699 12.6842 3.17288 12.9537 3.79666C12.9978 3.89489 13.1105 3.944 13.2134 3.90471C13.5318 3.77701 13.8797 3.70825 14.2422 3.70825C14.6341 3.70825 15.0016 3.79175 15.3445 3.93418C16.0108 4.21414 16.5498 4.75933 16.829 5.42731C16.9711 5.7662 17.0544 6.13457 17.0544 6.52259C17.0544 6.88605 16.9809 7.23477 16.8584 7.55402C16.8192 7.65717 16.8682 7.77013 16.9662 7.81434C17.5884 8.08448 18.0881 8.57563 18.3821 9.18467C18.5585 9.55304 18.6565 9.9607 18.6565 10.3929C18.6565 10.8251 18.5536 11.2377 18.3821 11.6012C18.093 12.2102 17.5884 12.7014 16.9662 12.9715C16.8682 13.0157 16.8192 13.1287 16.8584 13.2318C16.9858 13.5511 17.0544 13.8998 17.0544 14.2633C17.0544 14.5923 17.0005 14.9116 16.8927 15.2063C16.5057 16.2623 15.5748 17.0432 14.2471 17.0825C13.7425 17.0972 12.5079 17.2544 11.2536 17.9862C11.7975 18.4578 12.2874 19.0128 12.6842 19.6169C12.6842 19.6169 13.3799 19.2534 14.3941 19.1847C17.0397 19.1061 19.1611 16.9352 19.1611 14.2633C19.1611 14.1847 19.1611 14.111 19.1562 14.0324C20.1409 13.1336 20.7631 11.832 20.7631 10.388" fill="#272726"/>
<path d="M8.074 28.3792C7.46648 28.6591 6.78549 28.8163 6.07019 28.8163V30.9283C7.31951 30.9283 8.49533 30.5943 9.50459 30.0098C8.95587 29.5334 8.47574 28.9833 8.074 28.3792Z" fill="#272726"/>
<path d="M12.6745 28.3792C12.3658 28.2367 12.0767 28.0648 11.8073 27.8635C11.2047 27.4165 10.7098 26.8222 10.3718 26.1444C10.0974 25.5943 9.92106 24.9754 9.88677 24.3075C9.87697 24.1945 9.87207 23.8065 9.86717 23.7279C9.78878 22.6326 9.24986 21.665 8.44148 21.0216C8.01034 21.9253 7.76538 22.947 7.76538 24.0177C7.76538 25.447 8.20142 26.7633 8.94121 27.8635C8.94611 27.8733 9.49483 28.7279 10.3816 29.4253C12.3805 31.0069 14.4039 30.9185 14.6783 30.9283V28.831V28.8212C13.5073 28.8212 12.6843 28.3841 12.6794 28.3841" fill="#272726"/>
<path d="M52.3488 11.9646L44.3237 13.6149L43.8485 11.5079L51.6874 8.96857L52.3488 11.9646Z" fill="#272726"/>
<path d="M129.806 10.3487H127.205V29.5236H129.806V10.3487Z" fill="#272726"/>
<path d="M136.504 15.275L136.69 17.3969C137.165 16.6405 137.758 16.056 138.468 15.6385C139.184 15.221 139.992 15.0147 140.903 15.0147C142.437 15.0147 143.622 15.4666 144.465 16.3654C145.308 17.2642 145.724 18.6542 145.724 20.5354V29.5285H143.137V20.5845C143.137 19.3271 142.888 18.4381 142.393 17.9126C141.898 17.387 141.143 17.1218 140.129 17.1218C139.331 17.1218 138.655 17.2839 138.101 17.6031C137.542 17.9224 137.106 18.3743 136.778 18.9538V29.5285H134.191V15.275H136.504Z" fill="#272726"/>
<path d="M157.747 25.6925C157.747 25.1228 157.531 24.6562 157.095 24.2976C156.659 23.9391 155.841 23.6198 154.631 23.3497C152.96 22.9912 151.672 22.4853 150.775 21.8369C149.879 21.1886 149.428 20.3193 149.428 19.2289C149.428 18.0697 149.923 17.0776 150.908 16.2525C151.892 15.4273 153.171 15.0147 154.739 15.0147C156.307 15.0147 157.654 15.4519 158.653 16.331C159.653 17.2102 160.128 18.2318 160.084 19.4008L160.059 19.4794H157.59C157.59 18.8654 157.321 18.3055 156.782 17.8094C156.243 17.3084 155.562 17.058 154.739 17.058C153.828 17.058 153.147 17.2642 152.696 17.6768C152.245 18.0894 152.02 18.5805 152.02 19.1503C152.02 19.72 152.216 20.1473 152.603 20.4519C152.99 20.7613 153.793 21.0413 155.013 21.2967C156.757 21.665 158.08 22.1857 158.982 22.8635C159.883 23.5413 160.334 24.4204 160.334 25.5108C160.334 26.7731 159.824 27.8045 158.805 28.6051C157.786 29.4057 156.454 29.8035 154.807 29.8035C152.995 29.8035 151.569 29.3418 150.525 28.4185C149.482 27.4951 148.987 26.4194 149.041 25.1915L149.065 25.113H151.535C151.579 26.0363 151.922 26.7092 152.559 27.1365C153.196 27.5638 153.945 27.775 154.803 27.775C155.724 27.775 156.444 27.5786 156.963 27.1906C157.482 26.8026 157.742 26.3016 157.742 25.6974" fill="#272726"/>
<path d="M175.664 22.9371C175.664 24.9902 175.174 26.6503 174.194 27.9077C173.214 29.1699 171.862 29.7986 170.132 29.7986C169.255 29.7986 168.486 29.6513 167.825 29.3566C167.163 29.0619 166.6 28.6198 166.135 28.0354V35H163.548V15.2751H165.532L165.939 17.1169C166.404 16.4342 166.982 15.9086 167.673 15.5501C168.364 15.1916 169.172 15.0098 170.088 15.0098C171.847 15.0098 173.219 15.7122 174.194 17.112C175.169 18.5118 175.659 20.3635 175.659 22.6621V22.9371H175.664ZM173.077 22.6621C173.077 21.0462 172.758 19.72 172.126 18.6788C171.489 17.6375 170.559 17.1169 169.324 17.1169C168.579 17.1169 167.942 17.2888 167.418 17.6228C166.894 17.9617 166.468 18.4234 166.144 19.0128V25.8988C166.468 26.4882 166.894 26.945 167.418 27.2741C167.942 27.6031 168.589 27.7652 169.348 27.7652C170.573 27.7652 171.504 27.3134 172.131 26.4145C172.763 25.5157 173.077 24.3517 173.077 22.9322V22.6572V22.6621Z" fill="#272726"/>
<path d="M181.641 11.6257H179.054V8.97839H181.641V11.6257ZM181.641 29.5236H179.054V15.275H181.641V29.5236Z" fill="#272726"/>
<path d="M192.346 17.5638L191.018 17.4853C190.337 17.4853 189.759 17.6473 189.289 17.9715C188.818 18.2957 188.461 18.7525 188.206 19.3418V29.5187H185.619V15.275H187.931L188.181 17.3576C188.583 16.6208 189.083 16.0462 189.671 15.6336C190.264 15.221 190.945 15.0147 191.714 15.0147C191.905 15.0147 192.091 15.0295 192.267 15.0589C192.444 15.0884 192.586 15.1228 192.703 15.1572L192.351 17.5688L192.346 17.5638Z" fill="#272726"/>
<path d="M203.776 29.5236C203.688 29.0914 203.619 28.7132 203.57 28.3841C203.521 28.055 203.492 27.721 203.487 27.387C203.007 28.0747 202.375 28.6444 201.6 29.1061C200.826 29.5678 199.994 29.7986 199.097 29.7986C197.617 29.7986 196.491 29.4204 195.716 28.6591C194.942 27.8978 194.555 26.8517 194.555 25.5157C194.555 24.1798 195.104 23.0894 196.206 22.3232C197.304 21.557 198.798 21.169 200.679 21.169H203.492V19.7593C203.492 18.9244 203.237 18.2662 202.727 17.78C202.218 17.2937 201.502 17.0481 200.572 17.0481C199.729 17.0481 199.053 17.2593 198.534 17.6817C198.019 18.1041 197.759 18.61 197.759 19.1945L195.305 19.2191L195.28 19.1405C195.222 18.1041 195.702 17.1562 196.731 16.2967C197.759 15.4371 199.087 15.0049 200.719 15.0049C202.35 15.0049 203.624 15.4175 204.609 16.2377C205.588 17.058 206.078 18.2417 206.078 19.7888V26.6503C206.078 27.1611 206.103 27.6523 206.157 28.1238C206.211 28.6002 206.304 29.0619 206.446 29.5187H203.781L203.776 29.5236ZM199.479 27.6277C200.415 27.6277 201.262 27.387 202.017 26.9057C202.771 26.4244 203.261 25.8694 203.487 25.2456V22.9273H200.581C199.538 22.9273 198.705 23.1925 198.078 23.7181C197.451 24.2436 197.137 24.8625 197.137 25.5747C197.137 26.2083 197.333 26.7092 197.73 27.0776C198.122 27.446 198.705 27.6326 199.479 27.6326" fill="#272726"/>
<path d="M213.501 10.7367C213.966 10.9921 214.329 11.3458 214.598 11.7976C214.868 12.2495 215 12.7603 215 13.3252C215 13.89 214.868 14.4352 214.598 14.8919C214.334 15.3487 213.966 15.7073 213.506 15.9627C213.045 16.2181 212.531 16.3458 211.962 16.3458C211.394 16.3458 210.865 16.2181 210.4 15.9627C209.934 15.7073 209.567 15.3487 209.302 14.8919C209.033 14.4352 208.9 13.9096 208.9 13.3252C208.9 12.7407 209.038 12.2446 209.307 11.7976C209.576 11.3458 209.949 10.9921 210.414 10.7367C210.88 10.4813 211.399 10.3536 211.962 10.3536C212.526 10.3536 213.035 10.4813 213.496 10.7367M213.148 15.4077C213.506 15.2112 213.785 14.9362 213.986 14.5776C214.187 14.2191 214.29 13.8114 214.29 13.3497C214.29 12.888 214.187 12.4902 213.986 12.1365C213.78 11.778 213.506 11.503 213.148 11.3016C212.79 11.1002 212.394 11.002 211.948 11.002C211.502 11.002 211.11 11.1002 210.747 11.3016C210.385 11.498 210.101 11.778 209.9 12.1365C209.694 12.4951 209.596 12.8978 209.596 13.3497C209.596 13.8016 209.699 14.2191 209.9 14.5727C210.101 14.9263 210.385 15.2014 210.743 15.4028C211.1 15.5992 211.502 15.7024 211.953 15.7024C212.403 15.7024 212.795 15.6041 213.153 15.4126M212.643 13.6984L213.07 14.5973H212.413L212.051 13.7918H211.546V14.5973H210.919V12.1071H212.154C212.452 12.1071 212.683 12.1857 212.844 12.3379C213.006 12.4902 213.089 12.6965 213.089 12.947C213.089 13.2957 212.942 13.5462 212.634 13.6984M211.541 13.2122H212.075C212.305 13.2122 212.418 13.1287 212.418 12.9568C212.418 12.7849 212.305 12.6866 212.075 12.6866H211.541V13.2122Z" fill="#272726"/>
<path d="M121.296 10.3487H118.695V29.5236H121.296V10.3487Z" fill="#F15F00"/>
</g>
<defs>
<clipPath id="clip0_173_239">
<rect width="215" height="35" fill="white"/>
</clipPath>
</defs>
</svg>
